<svg width="26" height="26" viewBox="0 0 26 26" fill="none" xmlns="http://www.w3.org/2000/svg">
<path d="M19.5292 4.36522C18.551 3.62232 17.4638 3.03535 16.3073 2.62359C15.8833 2.47264 15.6714 2.39717 15.4777 2.49852C15.2841 2.59987 15.2218 2.8297 15.0974 3.28935L12.5345 12.7555C12.4107 13.2127 12.3489 13.4413 12.4528 13.6213C12.5567 13.8013 12.7856 13.862 13.2434 13.9834L22.8256 16.5245C23.2861 16.6466 23.5163 16.7076 23.701 16.5902C23.8858 16.4728 23.9259 16.2516 24.0061 15.8093C24.2226 14.615 24.252 13.3927 24.0914 12.1857C23.8871 10.6495 23.379 9.16825 22.5962 7.82641C21.8134 6.48456 20.7713 5.30845 19.5292 4.36522Z" stroke="#364C65" stroke-width="3"/>
<path d="M11.6879 7.6566C10.0887 7.44905 8.46302 7.70457 7.00751 8.39226C5.55201 9.07996 4.32904 10.1703 3.48658 11.5315C2.64411 12.8927 2.21825 14.4663 2.26051 16.062C2.30278 17.6577 2.81135 19.2071 3.72472 20.5227C4.63808 21.8383 5.91708 22.8638 7.40699 23.4751C8.89691 24.0863 10.5339 24.2572 12.1199 23.967C13.7059 23.6768 15.1729 22.938 16.3435 21.8399C17.5141 20.7419 18.3381 19.3316 18.7158 17.7798" stroke="#364C65" stroke-width="3"/>
</svg>
