<svg width="36" height="34" viewBox="0 0 36 34" fill="none" xmlns="http://www.w3.org/2000/svg">
<path d="M22.9354 15.2243L18.5476 19.3671L15.6224 16.6052L11.2347 20.748" stroke="#364C65" stroke-width="3" stroke-linecap="round" stroke-linejoin="round"/>
<path d="M20.7415 7.62921H9.31566C8.19556 7.62921 7.6355 7.62921 7.20768 7.8472C6.83136 8.03895 6.5254 8.34491 6.33365 8.72123C6.11566 9.14905 6.11566 9.70911 6.11566 10.8292V25.1432C6.11566 26.2633 6.11566 26.8233 6.33365 27.2511C6.5254 27.6275 6.83136 27.9334 7.20768 28.1252C7.6355 28.3432 8.19556 28.3432 9.31566 28.3432H24.8544C25.9745 28.3432 26.5346 28.3432 26.9624 28.1252C27.3387 27.9334 27.6447 27.6275 27.8364 27.2511C28.0544 26.8233 28.0544 26.2633 28.0544 25.1432V14.5339" stroke="#364C65" stroke-width="3" stroke-linecap="round"/>
<ellipse cx="28.0544" cy="7.62917" rx="2.92517" ry="2.76186" fill="#364C65"/>
</svg>
