<svg width="35" height="32" viewBox="0 0 35 32" fill="none" xmlns="http://www.w3.org/2000/svg">
<path d="M29.649 6.97468L28.4473 7.87243V7.87243L29.649 6.97468ZM29.649 22.2886L28.4473 21.3909L29.649 22.2886ZM27.8398 23.9068L27.0704 22.6192H27.0704L27.8398 23.9068ZM20.9181 24.8932L20.9122 23.3932C20.0861 23.3964 19.4181 24.067 19.4181 24.8932H20.9181ZM20.9181 24.8952L22.2274 25.6271C22.3524 25.4034 22.4181 25.1514 22.4181 24.8952H20.9181ZM18.5122 29.1987L19.8215 29.9306L19.8215 29.9306L18.5122 29.1987ZM16.7665 29.1987L15.4572 29.9306L15.4572 29.9306L16.7665 29.1987ZM14.3607 24.8952H12.8607C12.8607 25.1514 12.9263 25.4034 13.0514 25.6271L14.3607 24.8952ZM14.3607 24.8932H15.8607C15.8607 24.067 15.1927 23.3964 14.3665 23.3932L14.3607 24.8932ZM7.43892 23.9068L8.2084 22.6192H8.2084L7.43892 23.9068ZM5.62975 22.2886L4.42806 23.1864H4.42806L5.62975 22.2886ZM5.62975 6.97468L6.83143 7.87243L5.62975 6.97468ZM7.43892 5.35657L6.66944 4.06898L7.43892 5.35657ZM27.8398 5.35657L27.0704 6.64416V6.64416L27.8398 5.35657ZM32.2541 14.6317C32.2541 12.6073 32.2564 10.9628 32.1064 9.64394C31.9524 8.29049 31.6237 7.11164 30.8507 6.07693L28.4473 7.87243C28.7794 8.31697 29.0033 8.90737 29.1256 9.98298C29.2519 11.0931 29.2541 12.5376 29.2541 14.6317H32.2541ZM30.8507 23.1864C31.6237 22.1517 31.9524 20.9728 32.1064 19.6194C32.2564 18.3005 32.2541 16.6561 32.2541 14.6317H29.2541C29.2541 16.7257 29.2519 18.1702 29.1256 19.2803C29.0033 20.356 28.7794 20.9464 28.4473 21.3909L30.8507 23.1864ZM28.6093 25.1943C29.486 24.6704 30.25 23.9905 30.8507 23.1864L28.4473 21.3909C28.0912 21.8676 27.6257 22.2873 27.0704 22.6192L28.6093 25.1943ZM20.9239 26.3932C22.686 26.3863 24.1394 26.3566 25.3476 26.2072C26.5739 26.0556 27.6446 25.7709 28.6093 25.1943L27.0704 22.6192C26.5903 22.9061 25.9686 23.1076 24.9796 23.2299C23.9724 23.3544 22.6873 23.3862 20.9122 23.3932L20.9239 26.3932ZM22.4181 24.8952V24.8932H19.4181V24.8952H22.4181ZM19.8215 29.9306L22.2274 25.6271L19.6088 24.1632L17.203 28.4667L19.8215 29.9306ZM15.4572 29.9306C16.4114 31.6374 18.8674 31.6374 19.8215 29.9306L17.203 28.4667C17.3938 28.1254 17.885 28.1254 18.0758 28.4667L15.4572 29.9306ZM13.0514 25.6271L15.4572 29.9306L18.0758 28.4667L15.67 24.1632L13.0514 25.6271ZM12.8607 24.8932V24.8952H15.8607V24.8932H12.8607ZM6.66944 25.1943C7.63417 25.7709 8.70484 26.0556 9.93112 26.2072C11.1393 26.3566 12.5927 26.3863 14.3548 26.3932L14.3665 23.3932C12.5915 23.3862 11.3064 23.3544 10.2992 23.2299C9.31012 23.1076 8.68851 22.9061 8.2084 22.6192L6.66944 25.1943ZM4.42806 23.1864C5.02879 23.9905 5.79274 24.6704 6.66944 25.1943L8.2084 22.6192C7.6531 22.2873 7.18753 21.8676 6.83143 21.3909L4.42806 23.1864ZM3.02463 14.6317C3.02463 16.6561 3.02237 18.3005 3.17238 19.6194C3.32632 20.9728 3.65505 22.1517 4.42806 23.1864L6.83143 21.3909C6.49932 20.9464 6.2755 20.356 6.15316 19.2803C6.02689 18.1702 6.02463 16.7257 6.02463 14.6317H3.02463ZM4.42806 6.07693C3.65505 7.11164 3.32632 8.2905 3.17238 9.64394C3.02237 10.9628 3.02463 12.6073 3.02463 14.6317H6.02463C6.02463 12.5376 6.02689 11.0931 6.15316 9.98298C6.2755 8.90737 6.49932 8.31697 6.83143 7.87243L4.42806 6.07693ZM6.66944 4.06898C5.79274 4.5929 5.02879 5.27283 4.42806 6.07693L6.83143 7.87243C7.18753 7.39577 7.6531 6.97602 8.2084 6.64416L6.66944 4.06898ZM16 2.86816C13.7256 2.86816 11.9187 2.86671 10.477 2.99789C9.01762 3.13066 7.77281 3.40959 6.66944 4.06898L8.2084 6.64416C8.75896 6.31515 9.49231 6.09987 10.7488 5.98554C12.023 5.86962 13.6697 5.86816 16 5.86816V2.86816ZM19.2787 2.86816H16V5.86816H19.2787V2.86816ZM28.6093 4.06898C27.506 3.40959 26.2611 3.13066 24.8018 2.99789C23.36 2.86671 21.5532 2.86816 19.2787 2.86816V5.86816C21.6091 5.86816 23.2558 5.86962 24.5299 5.98554C25.7865 6.09987 26.5198 6.31515 27.0704 6.64416L28.6093 4.06898ZM30.8507 6.07693C30.25 5.27283 29.486 4.5929 28.6093 4.06898L27.0704 6.64416C27.6257 6.97602 28.0912 7.39577 28.4473 7.87243L30.8507 6.07693Z" fill="#364C65"/>
<ellipse cx="24.1968" cy="14.7502" rx="1.63934" ry="1.46621" fill="#364C65" stroke="#364C65" stroke-linecap="round"/>
<ellipse cx="17.6394" cy="14.7502" rx="1.63934" ry="1.46621" fill="#364C65" stroke="#364C65" stroke-linecap="round"/>
<ellipse cx="11.082" cy="14.7502" rx="1.63934" ry="1.46621" fill="#364C65" stroke="#364C65" stroke-linecap="round"/>
</svg>
