<svg width="60" height="61" viewBox="0 0 60 61" fill="none" xmlns="http://www.w3.org/2000/svg">
<circle cx="30" cy="30.5477" r="30" fill="#FAB437"/>
<circle cx="30" cy="30.5477" r="30" stroke="white"/>
<path d="M37.5292 21.3652C36.551 20.6223 35.4638 20.0353 34.3073 19.6236C33.8833 19.4726 33.6714 19.3972 33.4777 19.4985C33.2841 19.5999 33.2218 19.8297 33.0974 20.2894L30.5345 29.7555C30.4107 30.2127 30.3489 30.4413 30.4528 30.6213C30.5567 30.8013 30.7856 30.862 31.2434 30.9834L40.8256 33.5245C41.2861 33.6466 41.5163 33.7076 41.701 33.5902C41.8858 33.4728 41.9259 33.2516 42.0061 32.8093C42.2226 31.615 42.252 30.3927 42.0914 29.1857C41.8871 27.6495 41.379 26.1682 40.5962 24.8264C39.8134 23.4846 38.7713 22.3085 37.5292 21.3652Z" stroke="#364C65" stroke-width="3"/>
<path d="M29.6879 24.6566C28.0887 24.449 26.463 24.7046 25.0075 25.3923C23.552 26.08 22.329 27.1703 21.4866 28.5315C20.6441 29.8927 20.2183 31.4663 20.2605 33.062C20.3028 34.6577 20.8114 36.2071 21.7247 37.5227C22.6381 38.8383 23.9171 39.8638 25.407 40.4751C26.8969 41.0863 28.5339 41.2572 30.1199 40.967C31.7059 40.6768 33.1729 39.938 34.3435 38.8399C35.5141 37.7419 36.3381 36.3316 36.7158 34.7798" stroke="#364C65" stroke-width="3"/>
</svg>
