<svg width="35" height="35" viewBox="0 0 35 35" fill="none" xmlns="http://www.w3.org/2000/svg">
<path d="M26.8739 11.3323V7.23375C27.4505 6.98062 27.9387 6.57887 28.2817 6.07526C28.6247 5.57165 28.8084 4.98689 28.8113 4.38906V4.29493C28.8113 2.55186 27.3069 1.13881 25.4511 1.13881H25.3509C24.4597 1.13881 23.6051 1.47133 22.9749 2.06321C22.3448 2.6551 21.9908 3.45787 21.9908 4.29493V4.38906C21.9937 4.98689 22.1773 5.57165 22.5203 6.07526C22.8633 6.57887 23.3516 6.98062 23.9282 7.23375V11.3323C22.2709 11.5706 20.7101 12.2161 19.4038 13.2032L7.43665 4.44832C7.52201 4.15897 7.56655 3.86149 7.5715 3.56284C7.57297 2.85946 7.35231 2.17147 6.93743 1.58589C6.52256 1.00032 5.93212 0.543468 5.24079 0.273127C4.54945 0.0027865 3.78828 -0.0688978 3.05356 0.0671415C2.31884 0.203181 1.64359 0.540832 1.1132 1.03739C0.582814 1.53394 0.221129 2.16709 0.0738936 2.85674C-0.0733415 3.54639 0.000495285 4.26157 0.286051 4.91181C0.571607 5.56204 1.05605 6.11813 1.67813 6.50972C2.3002 6.90131 3.03194 7.11082 3.7808 7.11174C4.43594 7.10884 5.07882 6.94456 5.64522 6.6353L17.4293 15.2484C16.3707 16.7505 15.8184 18.5174 15.8444 20.3187C15.8705 22.1199 16.4736 23.872 17.5753 25.3466L13.9912 28.7142C13.7015 28.6272 13.3996 28.581 13.0955 28.5771C12.4808 28.5776 11.88 28.7492 11.3691 29.0702C10.8582 29.3913 10.4601 29.8474 10.2251 30.3809C9.99011 30.9144 9.92875 31.5014 10.0488 32.0676C10.1688 32.6339 10.4649 33.154 10.8995 33.5622C11.3342 33.9705 11.8879 34.2486 12.4908 34.3613C13.0937 34.4741 13.7186 34.4165 14.2866 34.1957C14.8546 33.975 15.3402 33.601 15.682 33.1212C16.0238 32.6413 16.2065 32.077 16.207 31.4997C16.203 31.214 16.1538 30.9304 16.061 30.6583L19.6067 27.3267C20.763 28.1628 22.1076 28.7393 23.5377 29.0118C24.9677 29.2844 26.4452 29.2459 27.857 28.8993C29.2688 28.5527 30.5773 27.9072 31.6825 27.0122C32.7876 26.1172 33.6599 24.9964 34.2327 23.7358C34.8055 22.4752 35.0634 21.1082 34.9868 19.7395C34.9102 18.3708 34.5011 17.0367 33.7908 15.8395C33.0805 14.6422 32.0878 13.6136 30.8889 12.8323C29.69 12.0511 28.3166 11.538 26.8739 11.3323ZM25.4041 24.8121C24.7488 24.829 24.0966 24.7224 23.4859 24.4985C22.8752 24.2747 22.3185 23.9382 21.8486 23.5088C21.3787 23.0794 21.0052 22.566 20.7502 21.9987C20.4952 21.4315 20.3638 20.822 20.3638 20.2063C20.3638 19.5905 20.4952 18.9811 20.7502 18.4138C21.0052 17.8466 21.3787 17.3331 21.8486 16.9038C22.3185 16.4744 22.8752 16.1379 23.4859 15.914C24.0966 15.6902 24.7488 15.5836 25.4041 15.6005C26.6742 15.6423 27.8774 16.1454 28.7604 17.0039C29.6434 17.8624 30.1372 19.0092 30.1378 20.2029C30.1385 21.3965 29.6459 22.5439 28.7638 23.4032C27.8818 24.2625 26.6791 24.7668 25.4091 24.8097" fill="#FF7A59"/>
</svg>
