<svg width="161" height="42" viewBox="0 0 161 42" fill="none" xmlns="http://www.w3.org/2000/svg">
<path d="M28.0875 7.53898C21.954 7.037 15.1221 7.03701 8.98854 7.53898C7.7046 7.64406 6.73178 8.76423 6.63524 10.1334C6.32564 14.5245 6.28445 21.103 6.56834 25.4896C6.66211 26.9386 7.77858 28.1822 9.28902 28.1822H14.024V34.8375L9.29868 34.8337C4.96383 34.8337 1.07288 31.1728 0.73678 25.9796C0.430791 21.2517 0.473053 14.3309 0.806621 9.59992C1.14092 4.85856 4.48711 1.22772 8.56962 0.893603C14.9821 0.3688 22.094 0.368798 28.5065 0.893601C32.589 1.22772 35.9352 4.85856 36.2695 9.59992C36.6031 14.3309 36.5884 21.2517 36.2825 25.9796C35.9464 31.1728 32.0644 34.8486 27.7296 34.8486L23.0531 34.8447L14.024 41.5V34.8375L23.0531 28.1822H27.7303C29.2406 28.1822 30.3571 26.9386 30.4509 25.4896C30.7348 21.103 30.7504 14.5245 30.4408 10.1334C30.3443 8.76423 29.3715 7.64406 28.0875 7.53898Z" fill="#FE5000"/>
<path d="M45.4639 29.7531H59.5948V25.7105H49.746V5.35815H45.4639V29.7531Z" fill="#D9ECFF"/>
<path d="M61.6434 29.7529H65.8031V11.6309H61.6434V29.7529ZM61.3069 6.89133C61.3069 8.45958 62.3163 9.64448 63.7233 9.64448C65.1302 9.64448 66.1396 8.45958 66.1396 6.89133C66.1396 5.32308 65.1302 4.13818 63.7233 4.13818C62.3163 4.13818 61.3069 5.32308 61.3069 6.89133Z" fill="#D9ECFF"/>
<path d="M82.1136 11.6309H77.9539L74.5282 24.9087L71.1026 11.6309H66.9428L72.3566 29.7528H76.6999L82.1136 11.6309Z" fill="#D9ECFF"/>
<path d="M89.5362 30.1703C93.0537 30.1703 95.8982 27.7657 96.4488 24.4549H92.809C92.4114 25.7095 91.3102 26.755 89.5362 26.755C87.1199 26.755 86.1717 24.908 86.1717 22.7821V22.3291H96.5711V19.1577C96.5711 14.8015 94.1854 11.2119 89.4751 11.2119C84.7036 11.2119 82.1343 14.6969 82.1343 19.6108V22.0851C82.1343 27.1732 85.04 30.1703 89.5362 30.1703ZM86.1717 18.8092C86.1717 16.3697 87.0893 14.5575 89.4751 14.5575C91.7079 14.5575 92.7478 16.2652 92.7478 18.5304V18.9835H86.1717V18.8092Z" fill="#D9ECFF"/>
<path d="M107.627 30.2407C113.04 30.2407 116.374 26.0587 116.588 21.0751H112.612C112.337 23.8283 110.808 26.2329 107.627 26.2329C104.048 26.2329 102.519 23.4449 102.519 19.5417V15.5688C102.519 11.6656 104.048 8.87762 107.627 8.87762C110.808 8.87762 112.337 11.2823 112.612 14.0354H116.588C116.374 9.05187 113.04 4.86987 107.627 4.86987C101.173 4.86987 98.2673 9.57462 98.2673 15.8128V19.2978C98.2673 25.5359 101.173 30.2407 107.627 30.2407Z" fill="#D9ECFF"/>
<path d="M118.849 29.7533H123.009V19.0195C123.009 16.58 124.201 15.3254 126.068 15.3254C128.087 15.3254 128.973 16.824 128.973 18.915V29.7533H133.133V18.1483C133.133 13.8616 130.962 11.213 127.505 11.213C125.456 11.213 123.834 12.2237 123.009 13.7919V4.31274H118.849V29.7533Z" fill="#D9ECFF"/>
<path d="M141.074 30.1703C142.909 30.1703 144.927 29.2991 145.662 28.0793V29.7521H149.668V18.1819C149.668 13.9651 146.946 11.2119 142.97 11.2119C139.544 11.2119 137.066 13.0938 136.149 16.6137H140.002C140.431 15.6379 141.318 14.906 142.755 14.906C144.468 14.906 145.508 16.1606 145.508 17.8334V20.3078C144.774 19.6108 143.367 18.7744 141.471 18.7744C137.648 18.7744 135.047 20.5866 135.047 24.5246C135.047 28.0445 137.494 30.1703 141.074 30.1703ZM142.144 27.0338C140.401 27.0338 139.085 26.058 139.085 24.3852C139.085 22.7124 140.308 21.8063 142.266 21.8063C144.132 21.8063 145.508 22.7473 145.508 24.3504C145.508 25.8838 143.979 27.0338 142.144 27.0338Z" fill="#D9ECFF"/>
<path d="M157.441 29.7523H160.317V25.9188H158.634C157.533 25.9188 157.136 25.4309 157.136 24.246V15.4638H160.53V11.6303H157.136V6.68164H152.945V11.6303H150.681V15.4638H152.945V24.5945C152.945 27.8007 154.383 29.7523 157.441 29.7523Z" fill="#D9ECFF"/>
</svg>
