<svg width="138" height="40" viewBox="0 0 138 40" fill="none" xmlns="http://www.w3.org/2000/svg">
<path d="M14.9348 7.09033V17.9738H4.80569V7.09033H0V33.0706H4.80699V22.5403H14.9335V33.0706H19.7418V7.09033H14.9348ZM35.1281 24.6733C35.1281 25.7147 34.709 26.7134 33.9631 27.4497C33.2171 28.1861 32.2054 28.5997 31.1504 28.5997C30.0955 28.5997 29.0838 28.1861 28.3378 27.4497C27.5919 26.7134 27.1728 25.7147 27.1728 24.6733V13.5446H22.613V24.6733C22.613 26.9062 23.5116 29.0477 25.1111 30.6265C26.7106 32.2054 28.88 33.0924 31.142 33.0924C33.404 33.0924 35.5734 32.2054 37.1729 30.6265C38.7724 29.0477 39.671 26.9062 39.671 24.6733V13.5446H35.1281V24.6733ZM68.9149 14.6914C68.9149 12.4094 70.4435 11.6864 72.1178 11.6864C73.4682 11.6864 75.2505 12.7009 76.4174 13.9312L79.4031 10.4562C77.9122 8.46569 74.8888 7.09033 72.4131 7.09033C67.4656 7.09033 63.888 9.9502 63.888 14.6914C63.888 23.488 74.7795 20.6962 74.7795 25.6198C74.7795 27.1377 73.286 28.4784 71.5766 28.4784C68.8797 28.4784 68.0055 27.1775 66.767 25.8009L63.4522 29.2027C65.5727 31.771 68.1876 33.0757 71.319 33.0757C76.0193 33.0757 79.7999 30.1812 79.7999 25.6557C79.7999 15.8908 68.9071 18.9253 68.9071 14.6914M136.296 28.9201C133.602 28.9201 132.835 27.7695 132.835 26.0076V18.2062H137.024V14.2535H132.835V9.03844L128.212 11.0867V26.9772C128.212 31.0416 131.053 33.0899 134.948 33.0899C135.56 33.1001 136.171 33.0513 136.772 32.946L137.9 28.8469C137.391 28.8816 136.807 28.9163 136.296 28.9163M52.4853 13.6743C50.2268 13.6743 48.6501 14.3216 47.1254 15.7971V7.24572H42.5591V23.0964C42.5591 29.0293 46.9042 33.095 51.788 33.095C57.2051 33.095 61.9704 28.9574 61.9704 23.3866C61.9704 17.8852 57.585 13.6782 52.4853 13.6782M52.4566 28.558C51.7761 28.558 51.1022 28.4257 50.4735 28.1686C49.8447 27.9115 49.2734 27.5347 48.7922 27.0597C48.311 26.5847 47.9292 26.0207 47.6688 25.4001C47.4084 24.7794 47.2743 24.1142 47.2743 23.4425C47.2743 22.7707 47.4084 22.1055 47.6688 21.4848C47.9292 20.8642 48.311 20.3002 48.7922 19.8252C49.2734 19.3502 49.8447 18.9734 50.4735 18.7163C51.1022 18.4592 51.7761 18.3269 52.4566 18.3269C53.8311 18.3269 55.1492 18.8659 56.1211 19.8252C57.093 20.7846 57.6389 22.0857 57.6389 23.4425C57.6389 24.7992 57.093 26.1003 56.1211 27.0597C55.1492 28.019 53.8311 28.558 52.4566 28.558ZM102.077 23.1503C102.077 17.5693 97.3223 13.4419 91.8947 13.4419C87.0123 13.4419 82.6658 17.5063 82.6658 23.4405V39.3002H87.2322V30.7372C88.7543 32.2102 90.3336 32.86 92.5894 32.86C97.6891 32.86 102.076 28.653 102.076 23.1503M97.7529 23.0938C97.7529 24.4505 97.2069 25.7517 96.235 26.711C95.2632 27.6704 93.945 28.2093 92.5706 28.2093C91.1961 28.2093 89.878 27.6704 88.9061 26.711C87.9343 25.7517 87.3883 24.4505 87.3883 23.0938C87.3883 21.7371 87.9343 20.4359 88.9061 19.4766C89.878 18.5172 91.1961 17.9783 92.5706 17.9783C93.945 17.9783 95.2632 18.5172 96.235 19.4766C97.2069 20.4359 97.7529 21.7371 97.7529 23.0938Z" fill="#D9ECFF"/>
<path d="M116.832 13.2233V8.69398C117.438 8.41425 117.952 7.97027 118.312 7.41373C118.673 6.85718 118.866 6.21097 118.869 5.5503V5.44628C118.869 3.52001 117.287 1.95845 115.336 1.95845H115.231C114.293 1.95845 113.395 2.32591 112.732 2.98001C112.069 3.63411 111.697 4.52125 111.697 5.44628V5.5503C111.7 6.21097 111.893 6.85718 112.254 7.41373C112.615 7.97027 113.128 8.41425 113.734 8.69398V13.2233C111.992 13.4867 110.351 14.1999 108.977 15.2908L96.3929 5.6158C96.4826 5.29604 96.5295 4.96728 96.5347 4.63725C96.5362 3.85994 96.3042 3.09964 95.8679 2.45252C95.4317 1.8054 94.8108 1.30054 94.0838 1.00178C93.3569 0.703031 92.5564 0.623812 91.7839 0.774149C91.0113 0.924486 90.3012 1.29763 89.7435 1.84637C89.1858 2.39511 88.8054 3.0948 88.6506 3.85694C88.4958 4.61907 88.5734 5.40942 88.8737 6.12799C89.174 6.84657 89.6834 7.4611 90.3375 7.89385C90.9917 8.3266 91.7611 8.55812 92.5486 8.55914C93.2375 8.55594 93.9135 8.37439 94.5091 8.03263L106.901 17.551C105.787 19.211 105.207 21.1635 105.234 23.1541C105.261 25.1447 105.896 27.0809 107.054 28.7105L103.285 32.4321C102.981 32.3359 102.663 32.2848 102.343 32.2805C101.697 32.281 101.065 32.4707 100.528 32.8255C99.9908 33.1803 99.5722 33.6843 99.3251 34.2739C99.078 34.8635 99.0134 35.5121 99.1397 36.1379C99.2659 36.7637 99.5772 37.3385 100.034 37.7896C100.491 38.2408 101.074 38.5481 101.708 38.6727C102.341 38.7973 102.999 38.7336 103.596 38.4897C104.193 38.2457 104.704 37.8325 105.063 37.3022C105.423 36.7719 105.615 36.1483 105.615 35.5103C105.611 35.1945 105.559 34.8812 105.462 34.5805L109.19 30.8988C110.406 31.8227 111.82 32.4597 113.324 32.761C114.828 33.0622 116.381 33.0197 117.866 32.6366C119.35 32.2536 120.726 31.5402 121.888 30.5511C123.051 29.5621 123.968 28.3235 124.57 26.9304C125.172 25.5374 125.444 24.0267 125.363 22.5141C125.283 21.0016 124.852 19.5273 124.105 18.2042C123.359 16.8811 122.315 15.7443 121.054 14.881C119.793 14.0176 118.349 13.4506 116.832 13.2233ZM115.286 28.1198C114.597 28.1385 113.912 28.0207 113.269 27.7733C112.627 27.526 112.042 27.154 111.548 26.6796C111.054 26.2051 110.661 25.6376 110.393 25.0108C110.125 24.3839 109.986 23.7104 109.986 23.0299C109.986 22.3495 110.125 21.6759 110.393 21.0491C110.661 20.4222 111.054 19.8548 111.548 19.3803C112.042 18.9058 112.627 18.5339 113.269 18.2866C113.912 18.0392 114.597 17.9214 115.286 17.9401C116.622 17.9863 117.887 18.5422 118.816 19.491C119.744 20.4397 120.264 21.7071 120.264 23.0262C120.265 24.3453 119.747 25.6132 118.819 26.5628C117.892 27.5125 116.627 28.0697 115.292 28.1172" fill="#FF7A59"/>
</svg>
