<svg width="201" height="36" viewBox="0 0 201 36" fill="none" xmlns="http://www.w3.org/2000/svg">
<path d="M4.67653 28.1638C3.93967 28.1654 3.2156 27.9788 2.57827 27.6232C1.94095 27.2676 1.41322 26.7558 1.04899 26.1399C0.690345 25.5284 0.511477 24.8346 0.531551 24.1327C0.551625 23.431 0.769883 22.7476 1.16295 22.156L8.63327 10.8768C9.01562 10.2706 9.55844 9.7729 10.2063 9.43443C10.8542 9.09596 11.5839 8.9289 12.3209 8.95031C13.0574 8.96728 13.7759 9.17209 14.403 9.54375C15.0301 9.91541 15.5433 10.4406 15.8899 11.0655C16.5863 12.3316 16.4993 13.8549 15.6652 15.0434L8.19962 26.3225C7.82099 26.8897 7.29963 27.3559 6.68375 27.6777C6.06788 27.9996 5.37748 28.1668 4.67653 28.1638Z" fill="#F62B54"/>
<path d="M17.4901 28.1638C15.9834 28.1638 14.597 27.3893 13.8689 26.1444C13.5111 25.5346 13.3326 24.8426 13.3527 24.1426C13.3728 23.4427 13.5906 22.7612 13.9829 22.1712L21.439 10.9179C21.8157 10.3032 22.3565 9.79661 23.0055 9.45064C23.6546 9.10464 24.388 8.9319 25.1298 8.95031C26.6492 8.98226 28.0261 9.79945 28.7225 11.0777C29.4142 12.356 29.3128 13.8884 28.4534 15.0738L20.999 26.3271C20.6215 26.8919 20.1023 27.3562 19.489 27.6772C18.8758 27.9982 18.1884 28.1656 17.4901 28.1638Z" fill="#FFCC00"/>
<path d="M30.017 28.258C32.141 28.258 33.8629 26.6372 33.8629 24.6378C33.8629 22.6384 32.141 21.0176 30.017 21.0176C27.8929 21.0176 26.171 22.6384 26.171 24.6378C26.171 26.6372 27.8929 28.258 30.017 28.258Z" fill="#00CA72"/>
<path d="M197.096 21.2277C198.257 21.2277 198.952 22.022 198.952 23.3231V27.7818H200.53V23.2211C200.53 21.0085 199.446 19.7257 197.408 19.7257C196.61 19.7257 195.343 19.9357 194.589 21.3464C194.413 20.9303 194.124 20.5676 193.751 20.297C193.378 20.0264 192.937 19.8579 192.473 19.8094C192.18 19.758 191.883 19.7411 191.586 19.7592C190.937 19.8094 189.782 20.1974 189.35 21.077V19.8946H187.77V27.7818H189.35V23.5255C189.35 21.8699 190.477 21.2277 191.605 21.2277C192.662 21.2277 193.357 22.0053 193.357 23.3064V27.7818H194.927V23.5255C194.927 22.2077 195.75 21.2124 197.096 21.2277ZM181.973 26.464C182.695 26.4792 183.391 26.2022 183.896 25.7C184.402 25.1979 184.672 24.5146 184.645 23.8131C184.645 22.2244 183.429 21.2277 181.973 21.2277C180.515 21.2277 179.301 22.2244 179.301 23.8131C179.273 24.5131 179.542 25.1949 180.045 25.6955C180.549 26.1977 181.242 26.4761 181.96 26.464H181.973ZM181.973 27.9431C179.665 27.9431 177.739 26.3042 177.739 23.804C177.739 21.3038 179.665 19.7166 181.973 19.7166C184.281 19.7166 186.222 21.3038 186.222 23.804C186.222 26.3042 184.269 27.9507 181.962 27.9507L181.973 27.9431ZM169.612 23.804L169.596 23.8131C169.596 21.3129 171.573 19.7257 173.897 19.7166C174.48 19.7057 175.06 19.8128 175.598 20.0309C176.136 20.249 176.62 20.5732 177.019 20.9827L175.822 21.9627C175.569 21.7227 175.267 21.5336 174.937 21.4061C174.606 21.2786 174.252 21.2154 173.897 21.22C172.441 21.22 171.174 22.2168 171.174 23.804C171.174 24.8768 171.838 25.8431 172.855 26.254C173.873 26.6649 175.044 26.4366 175.822 25.6788L177.037 26.6588C176.636 27.0724 176.149 27.4005 175.608 27.6217C175.067 27.843 174.484 27.9525 173.897 27.9431C171.59 27.9431 169.612 26.3042 169.612 23.804ZM164.558 26.2677C164.557 26.1298 164.584 25.9929 164.637 25.8649C164.69 25.7369 164.769 25.6202 164.869 25.5216C164.97 25.423 165.089 25.3443 165.221 25.2901C165.353 25.2358 165.495 25.2071 165.638 25.2055C165.782 25.2071 165.923 25.2358 166.055 25.2901C166.187 25.3443 166.306 25.423 166.406 25.5216C166.507 25.6202 166.586 25.7369 166.639 25.8649C166.692 25.9929 166.719 26.1298 166.717 26.2677C166.703 26.5347 166.584 26.7865 166.383 26.9717C166.182 27.157 165.916 27.2617 165.638 27.2644C165.36 27.2617 165.093 27.157 164.893 26.9717C164.692 26.7865 164.573 26.5347 164.558 26.2677Z" fill="#D9ECFF"/>
<path fill-rule="evenodd" clip-rule="evenodd" d="M168.876 9.86781H163.256L159.316 19.6328L155.398 9.86781H149.778L156.61 25.2982L152.36 35.5H157.939L168.876 9.86781ZM134.696 18.4504C134.696 20.9157 136.937 22.5378 139.138 22.5378C141.302 22.5378 143.428 21.0282 143.428 18.4489C143.428 15.8696 141.302 14.3585 139.138 14.3585C136.937 14.3585 134.696 15.9822 134.696 18.4489V18.4504ZM143.428 27.0665V25.1141C142.288 26.7728 139.629 27.3998 138.265 27.3998C133.748 27.3998 129.229 23.9759 129.229 18.4489C129.229 12.9235 133.746 9.49957 138.265 9.49957C139.403 9.49957 142.062 9.86476 143.428 11.7822V9.87391H148.666V27.0696L143.428 27.068V27.0665ZM127.739 27.0665H122.5V24.93C121.624 26.5126 119.502 27.4348 117.299 27.4348C112.742 27.4348 108.718 23.9363 108.718 18.5189C108.718 12.9996 112.742 9.49652 117.299 9.49652C119.499 9.49652 121.628 10.3791 122.5 11.9632V0.5H127.739V27.0665ZM122.386 18.4109C122.386 15.833 120.45 14.322 118.287 14.322C116.045 14.322 114.184 15.9426 114.184 18.4109C114.184 20.9583 116.045 22.5713 118.285 22.5713C120.49 22.5743 122.386 20.8791 122.386 18.4109ZM95.7649 17.9665C95.7649 15.3522 97.1704 14.468 99.0299 14.468C100.814 14.468 102.105 15.6093 102.105 17.892V27.0635H107.382V16.7887C107.382 11.8918 104.875 9.49652 100.888 9.49652C98.8004 9.49652 96.7131 10.6378 95.7632 12.3696V9.86781H90.4896V27.0635H95.7649V17.9665ZM79.775 27.3587C74.764 27.3587 70.5842 23.8237 70.5842 18.4093C70.5842 12.992 74.7593 9.49195 79.775 9.49195C84.7904 9.49195 89.0023 12.992 89.0023 18.4093C89.0023 23.8268 84.7856 27.3602 79.775 27.3602V27.3587ZM79.775 22.3522C81.975 22.3522 83.7998 20.803 83.7998 18.4109C83.7998 16.0902 81.9767 14.5061 79.775 14.5061C79.2448 14.4981 78.7185 14.594 78.2282 14.7878C77.7378 14.9817 77.2937 15.2695 76.9228 15.6337C76.5498 15.9999 76.2573 16.4344 76.062 16.9115C75.8672 17.3886 75.7742 17.8985 75.7884 18.4109C75.7897 20.8061 77.6115 22.3522 79.775 22.3522ZM61.1244 14.4696C62.6802 14.4696 64.0477 15.6489 64.0477 17.8935V27.0665H69.2866V17.3C69.2866 12.1078 66.6609 9.49348 62.4524 9.49348C61.2019 9.49348 58.8469 9.85871 57.1377 12.5491C56.1502 10.5602 54.2526 9.52848 51.4479 9.52848C50.474 9.5237 49.5199 9.78867 48.6985 10.2917C47.8771 10.7947 47.224 11.5145 46.8171 12.365V9.86934H41.5371V27.065H46.8124V17.9665C46.8124 15.3522 48.2938 14.468 49.8873 14.468C51.4068 14.468 52.7712 15.6093 52.8106 17.7824V27.065H58.0872V17.9665C58.0872 15.4663 59.4546 14.4711 61.1244 14.4711V14.4696Z" fill="#D9ECFF"/>
</svg>
