<svg width="161" height="30" viewBox="0 0 161 30" fill="none" xmlns="http://www.w3.org/2000/svg">
<path d="M65.1271 11.3024H70.3809C69.5045 6.45844 64.6682 3.08447 58.3742 3.08447C50.9272 3.08447 45.339 7.83243 45.339 15.7844C45.339 23.5942 50.6758 28.4382 58.5265 28.4382C65.5722 28.4382 70.6161 24.5082 70.6161 18.1463V15.1824H59.0684V18.6763H65.6276C65.5446 22.1962 62.8347 24.4242 58.5541 24.4242C53.7893 24.4242 50.5236 21.3282 50.5236 15.7364C50.5236 10.1804 53.8447 7.09644 58.4434 7.09644C61.8752 7.09644 64.2231 8.68642 65.1271 11.3024Z" fill="#D9ECFF"/>
<path d="M74.0901 28.1003H79.1201V9.60049H74.0901V28.1003ZM76.627 6.66052C78.2253 6.66052 79.5307 5.59853 79.5307 4.29854C79.5307 2.99855 78.2253 1.92456 76.627 1.92456C75.0287 1.92456 73.7095 2.98455 73.7095 4.29854C73.7095 5.61253 75.0057 6.66052 76.6178 6.66052H76.627Z" fill="#D9ECFF"/>
<path d="M94.1822 9.6007H89.9708V5.15674H84.9408V9.6007H81.9126V12.9747H84.9408V23.2665C84.9131 26.7485 87.8329 28.4665 91.6106 28.3645C92.6169 28.3473 93.6148 28.2009 94.5719 27.9305L93.7232 24.5185C93.2426 24.6267 92.7483 24.6839 92.2518 24.6885C90.9856 24.6885 89.9708 24.3025 89.9708 22.5425V12.9647H94.1822V9.6007Z" fill="#D9ECFF"/>
<path d="M98.0756 28.1004H115.765V24.3524H103.232V3.42065H98.0756V28.1004Z" fill="#D9ECFF"/>
<path d="M125.4 28.4744C128.749 28.4744 130.748 27.1124 131.666 25.5584H131.832V28.1004H136.676V15.7125C136.676 10.8206 132.077 9.35059 128.004 9.35059C123.516 9.35059 120.07 11.0846 118.958 14.4585L123.656 15.0385C124.155 13.7725 125.573 12.6886 128.038 12.6886C130.375 12.6886 131.652 13.7245 131.652 15.5445V15.6165C131.652 16.8685 130.137 16.9305 126.371 17.2785C122.231 17.6645 118.271 18.7365 118.271 22.9065C118.257 26.5464 121.327 28.4744 125.4 28.4744ZM127.054 25.2744C124.955 25.2744 123.453 24.4424 123.453 22.8405C123.453 21.1645 125.135 20.4665 127.374 20.1885C128.696 20.0325 131.336 19.7425 131.987 19.2865V21.4665C132.001 23.5205 130.082 25.2684 127.054 25.2684V25.2744Z" fill="#D9ECFF"/>
<path d="M140.38 28.1004H145.327V25.1844H145.617C146.411 26.5344 148.064 28.4264 151.734 28.4264C156.764 28.4264 160.53 24.9664 160.53 18.8705C160.53 12.7006 156.653 9.3506 151.72 9.3506C147.954 9.3506 146.383 11.3146 145.617 12.6526H145.405V3.42065H140.38V28.1004ZM145.313 18.8465C145.313 15.2465 147.091 12.9286 150.329 12.9286C153.678 12.9286 155.403 15.3985 155.403 18.8465C155.403 22.2945 153.653 24.8464 150.329 24.8464C147.119 24.8464 145.313 22.4365 145.313 18.8465Z" fill="#D9ECFF"/>
<path d="M35.8556 11.8746L35.8072 11.7626L30.9178 0.702715C30.8188 0.485551 30.6426 0.30133 30.415 0.17672C30.245 0.0823945 30.052 0.023901 29.8513 0.00592717C29.6507 -0.0120481 29.448 0.0109971 29.2593 0.0732145C29.0709 0.135434 28.9016 0.235093 28.7655 0.364208C28.6295 0.493321 28.5301 0.648297 28.4754 0.816714L25.1751 9.57863H11.81L8.50965 0.816714C8.4546 0.648549 8.35501 0.493865 8.2188 0.364998C8.08259 0.236131 7.91354 0.136648 7.72511 0.0744805C7.53671 0.0123131 7.33417 -0.0108175 7.13362 0.00693317C6.93308 0.024685 6.74009 0.0828245 6.57005 0.17672C6.34234 0.30133 6.16623 0.485551 6.06727 0.702715L1.18021 11.7646L1.12947 11.8746C0.425873 13.4692 0.339193 15.2189 0.882495 16.86C1.4258 18.501 2.56963 19.9445 4.14152 20.9725L4.15997 20.9845L4.20146 21.0125L11.6393 25.8464L15.3294 28.2644L17.5711 29.7344C17.8342 29.9068 18.1548 30 18.4844 30C18.8141 30 19.1347 29.9068 19.3977 29.7344L21.6395 28.2644L25.3296 25.8464L32.8205 20.9845L32.8412 20.9705C34.413 19.9429 35.5569 18.4999 36.1008 16.8592C36.6444 15.2186 36.5583 13.4692 35.8556 11.8746Z" fill="#E24329"/>
<path d="M35.8554 11.8747L35.807 11.7627C33.4248 12.1866 31.1801 13.0622 29.234 14.3267L18.4982 21.3666L25.3341 25.8465L32.825 20.9846L32.8457 20.9706C34.4168 19.9424 35.5598 18.4992 36.1027 16.8586C36.6454 15.218 36.5586 13.4688 35.8554 11.8747Z" fill="#FC6D26"/>
<path d="M11.6392 25.8464L15.3293 28.2644L17.571 29.7344C17.834 29.9068 18.1546 30 18.4843 30C18.8139 30 19.1346 29.9068 19.3976 29.7344L21.6393 28.2644L25.3294 25.8464L18.4935 21.3665L11.6392 25.8464Z" fill="#FCA326"/>
<path d="M7.75087 14.3266C5.80541 13.0628 3.56155 12.1879 1.18021 11.7646L1.12947 11.8746C0.425874 13.4693 0.339193 15.219 0.882495 16.86C1.42579 18.5011 2.56962 19.9445 4.14152 20.9725L4.15997 20.9845L4.20146 21.0125L11.6393 25.8465L18.4798 21.3665L7.75087 14.3266Z" fill="#FC6D26"/>
</svg>
