<svg width="25" height="22" viewBox="0 0 25 22" fill="none" xmlns="http://www.w3.org/2000/svg">
<path d="M11.6222 1.05706C11.943 0.183226 13.1789 0.183227 13.4997 1.05706L15.8003 7.3238C15.9449 7.71749 16.3197 7.97918 16.7391 7.97918H23.8983C24.8963 7.97918 25.2786 9.28052 24.4392 9.82029L18.8657 13.4042C18.4718 13.6575 18.3065 14.1503 18.4679 14.5899L20.6446 20.5192C20.9751 21.4195 19.9716 22.2236 19.165 21.705L13.1018 17.8061C12.7724 17.5943 12.3496 17.5943 12.0201 17.8061L5.95695 21.705C5.15033 22.2236 4.14685 21.4195 4.47735 20.5192L6.65409 14.5899C6.81549 14.1503 6.65014 13.6575 6.25621 13.4042L0.682772 9.82029C-0.156644 9.28052 0.225648 7.97918 1.22363 7.97918H8.38287C8.80225 7.97918 9.17708 7.71749 9.32161 7.3238L11.6222 1.05706Z" fill="#FBB03B"/>
</svg>
