<svg width="29" height="29" viewBox="0 0 29 29" fill="none" xmlns="http://www.w3.org/2000/svg">
<path d="M21.6807 4.97879C16.8552 4.62373 11.4803 4.62374 6.6547 4.97879C5.64457 5.05311 4.8792 5.84543 4.80325 6.8139C4.55967 9.91974 4.52727 14.5729 4.75062 17.6756C4.82439 18.7005 5.70277 19.5801 6.8911 19.5801H10.6163V24.2875L6.8987 24.2848C3.48827 24.2848 0.427088 21.6954 0.16266 18.0221C-0.0780755 14.6781 -0.0448255 9.78286 0.217607 6.43653C0.480614 3.08288 3.11322 0.514728 6.32512 0.278402C11.3701 -0.0927997 16.9654 -0.0928013 22.0103 0.278401C25.2222 0.514726 27.8549 3.08288 28.1179 6.43653C28.3803 9.78286 28.3688 14.6781 28.1281 18.0221C27.8637 21.6954 24.8096 24.2953 21.3991 24.2953L17.7199 24.2926L10.6163 29V24.2875L17.7199 19.5801H21.3997C22.588 19.5801 23.4663 18.7005 23.5401 17.6756C23.7635 14.5729 23.7758 9.91974 23.5322 6.8139C23.4562 5.84543 22.6909 5.05311 21.6807 4.97879Z" fill="#FE5000"/>
</svg>
