<svg width="40" height="24" viewBox="0 0 40 24" fill="none" xmlns="http://www.w3.org/2000/svg">
<path d="M4.96929 22.5573C4.09372 22.5591 3.23333 22.3452 2.47602 21.9375C1.71871 21.5298 1.09163 20.9429 0.658839 20.2367C0.232672 19.5355 0.0201306 18.74 0.0439833 17.9352C0.0678361 17.1306 0.327184 16.3471 0.794247 15.6686L9.67094 2.73569C10.1253 2.04061 10.7703 1.46989 11.5401 1.08179C12.31 0.693689 13.1771 0.502141 14.0528 0.526693C14.9279 0.546145 15.7817 0.780987 16.5269 1.20714C17.2721 1.63329 17.8818 2.23546 18.2937 2.95207C19.1212 4.40381 19.0178 6.1504 18.0267 7.51313L9.15564 20.4461C8.70574 21.0964 8.08623 21.631 7.3544 22C6.62258 22.3691 5.80221 22.5608 4.96929 22.5573Z" fill="#F62B54"/>
<path d="M20.0061 22.5574C18.2157 22.5574 16.5682 21.6693 15.703 20.2419C15.2778 19.5426 15.0657 18.7491 15.0896 17.9465C15.1134 17.1439 15.3723 16.3624 15.8384 15.6859L24.6986 2.7823C25.1462 2.07743 25.7889 1.49654 26.5601 1.09984C27.3314 0.703087 28.2029 0.505018 29.0844 0.526124C30.8899 0.562763 32.5262 1.4998 33.3537 2.96555C34.1756 4.43125 34.0552 6.18836 33.0339 7.54764L24.1757 20.4513C23.7272 21.0989 23.1102 21.6313 22.3814 21.9994C21.6527 22.3675 20.8358 22.5594 20.0061 22.5574Z" fill="#FFCC00"/>
<path d="M34.8351 23.4754C37.4319 23.4754 39.5369 21.4203 39.5369 18.8853C39.5369 16.3502 37.4319 14.2951 34.8351 14.2951C32.2385 14.2951 30.1334 16.3502 30.1334 18.8853C30.1334 21.4203 32.2385 23.4754 34.8351 23.4754Z" fill="#00CA72"/>
</svg>
