<svg width="61" height="61" viewBox="0 0 61 61" fill="none" xmlns="http://www.w3.org/2000/svg">
<circle cx="30.5" cy="30.0834" r="30" fill="#FAB437"/>
<circle cx="30.5" cy="30.0834" r="30" stroke="#364C65"/>
<rect x="21.9264" y="34.6064" width="17.4661" height="4.36652" rx="2.18326" stroke="#364C65" stroke-width="2"/>
<path d="M22.8359 29.4209L26.2929 34.6064H35.026L38.483 29.4209C38.9184 28.7678 39.1361 28.4413 39.1008 28.0855C39.0656 27.7298 38.7881 27.4523 38.2331 26.8973L30.6595 19.3236L23.0858 26.8973C22.5308 27.4523 22.2533 27.7298 22.2181 28.0855C22.1829 28.4413 22.4005 28.7678 22.8359 29.4209Z" stroke="#364C65" stroke-width="2"/>
<path d="M32.9343 29.1482C32.9343 30.4046 31.9158 31.4231 30.6595 31.4231C29.4031 31.4231 28.3846 30.4046 28.3846 29.1482C28.3846 27.8919 29.4031 26.8734 30.6595 26.8734C31.9158 26.8734 32.9343 27.8919 32.9343 29.1482Z" stroke="#364C65" stroke-width="2"/>
<path d="M30.6595 19.3236V26.965" stroke="#364C65" stroke-width="2"/>
</svg>
