<svg width="147" height="42" viewBox="0 0 147 42" fill="none" xmlns="http://www.w3.org/2000/svg">
<path d="M44.829 18.8465H31.4468L43.0358 12.578L40.7376 8.84708L29.1472 15.1156L35.8368 4.25886L31.8552 2.10534L25.1641 12.9593V0.425049H20.5648V12.9607L13.8738 2.10534L9.89073 4.25886L16.5804 15.1129L4.99281 8.84708L2.69316 12.578L14.2822 18.8465H0.899994V23.1549H14.2807L2.69316 29.4235L4.99135 33.1544L16.5818 26.8859L9.89073 37.7426L13.8723 39.8961L20.5648 29.0408V41.5751H25.1641V28.7719L31.9782 39.8275L35.7124 37.8085L28.8969 26.7501L40.7347 33.153L43.0344 29.4221L31.4468 23.1536H44.8275V18.8465H44.829ZM22.8645 26.8571C22.0434 26.8572 21.2304 26.7058 20.4719 26.4114C19.7133 26.1171 19.024 25.6857 18.4435 25.1417C17.8629 24.5978 17.4023 23.952 17.088 23.2412C16.7737 22.5304 16.612 21.7687 16.6118 20.9994C16.6117 20.23 16.7733 19.4682 17.0874 18.7574C17.4016 18.0466 17.8619 17.4007 18.4425 16.8567C19.0229 16.3127 19.712 15.881 20.4706 15.5865C21.2291 15.292 22.042 15.1404 22.863 15.1403C24.5211 15.1402 26.1114 15.7571 27.284 16.8557C28.4567 17.9543 29.1156 19.4443 29.1157 20.998C29.1159 22.5517 28.4574 24.0419 27.2851 25.1407C26.1127 26.2395 24.5226 26.8569 22.8645 26.8571Z" fill="#5753F3"/>
<path d="M56.6841 36.0511V5.94849H62.5804V36.0511H56.6841ZM113.236 15.594H118.865V18.0905C120.063 16.0947 122.857 15.0125 125.251 15.0125C128.222 15.0125 130.615 16.2195 131.724 18.4211C133.451 15.9246 135.758 15.0125 138.64 15.0125C142.674 15.0125 146.53 17.299 146.53 22.7871V36.0511H140.812V23.9105C140.812 21.7062 139.659 20.0424 136.954 20.0424C134.426 20.0424 132.918 21.8735 132.918 24.0778V36.0525H127.069V23.9105C127.069 21.7062 125.871 20.0424 123.21 20.0424C120.638 20.0424 119.13 21.8324 119.13 24.0778V36.0525H113.236V15.594ZM75.9054 36.6436C69.2627 36.6436 64.4526 32.0252 64.4526 25.8226C64.4526 19.7186 69.248 14.9919 75.9054 14.9919C82.5951 14.9919 87.3583 19.7625 87.3583 25.8226C87.3583 31.9813 82.5453 36.6436 75.9054 36.6436ZM75.9054 19.9985C74.2578 20.0007 72.6783 20.6152 71.5136 21.7074C70.349 22.7995 69.6942 24.28 69.693 25.8239C69.6942 27.3679 70.349 28.8483 71.5136 29.9404C72.6783 31.0327 74.2578 31.6472 75.9054 31.6494C77.5528 31.6468 79.132 31.0322 80.2963 29.94C81.4606 28.8479 82.1152 27.3676 82.1164 25.8239C82.1152 24.2803 81.4606 22.8 80.2963 21.7078C79.132 20.6157 77.5528 20.0011 75.9054 19.9985ZM99.9515 36.6436C93.3087 36.6436 88.4986 32.0252 88.4986 25.8226C88.4986 19.7186 93.2941 14.9919 99.9515 14.9919C106.641 14.9919 111.404 19.7625 111.404 25.8226C111.404 31.9813 106.588 36.6436 99.9515 36.6436ZM99.9515 19.9285C98.2849 19.9311 96.6873 20.5529 95.5094 21.6575C94.3313 22.7621 93.6688 24.2596 93.6673 25.8212C93.6688 27.3828 94.3313 28.8803 95.5094 29.9849C96.6873 31.0895 98.2849 31.7113 99.9515 31.7139C101.618 31.7113 103.215 31.0895 104.394 29.9849C105.572 28.8803 106.234 27.3828 106.236 25.8212C106.234 24.2596 105.572 22.7621 104.394 21.6575C103.215 20.5529 101.618 19.9311 99.9515 19.9285Z" fill="#D9ECFF"/>
</svg>
