<svg width="73" height="57" viewBox="0 0 73 57" fill="none" xmlns="http://www.w3.org/2000/svg">
<g clip-path="url(#clip0_0_865)">
<path d="M0.500141 13.7722C0.73568 12.7397 0.915434 11.695 1.21915 10.6871C3.15304 4.36949 8.41544 0.319566 15.0601 0.0122894C17.1985 -0.0860419 18.8534 1.26599 19.0332 3.27558C19.1882 4.98404 17.7997 6.58189 15.8658 6.90146C15.0415 7.03666 14.1799 7.05509 13.3865 7.28248C9.95882 8.26576 7.7832 11.1665 7.59105 14.9644C7.54766 15.7941 7.58485 16.6237 7.58485 17.6132C8.1489 17.6377 8.64477 17.6807 9.13444 17.6807C14.7563 17.6869 20.372 17.6808 25.9939 17.6869C30.4692 17.6869 32.8369 20.0406 32.8369 24.4532C32.8369 33.1368 32.8369 41.8205 32.8307 50.5041C32.8307 54.4988 30.4382 56.957 26.403 56.9816C19.9382 57.0246 13.4795 57.0123 7.0146 56.9816C3.53113 56.9631 1.82659 55.5435 0.493943 51.6964C0.500143 39.0488 0.50014 26.4074 0.500141 13.7722ZM25.7212 24.6867C20.0187 24.6867 14.5022 24.7174 8.98568 24.6621C7.85758 24.6498 7.56006 24.994 7.56626 26.0817C7.60345 33.6039 7.60345 41.1199 7.56006 48.642C7.55386 49.6683 7.83898 50.0002 8.9051 49.9941C14.1489 49.951 19.3927 49.9818 24.6365 49.9818C24.9898 49.9818 25.3493 49.9019 25.7274 49.8589C25.7212 41.464 25.7212 33.1737 25.7212 24.6867Z" fill="#FAB437"/>
<path d="M47.2605 17.6806C49.6841 17.6806 52.0146 17.6806 54.3514 17.6806C58.1944 17.6806 62.0374 17.6683 65.8741 17.6806C69.9403 17.6991 72.4692 20.1511 72.4816 24.1826C72.5064 32.9646 72.5126 41.7405 72.4816 50.5225C72.463 54.4802 69.9712 56.9569 65.9795 56.9753C59.558 57.006 53.1427 56.9999 46.7213 56.9753C42.5002 56.9568 40.151 54.5662 40.151 50.3627C40.151 38.5632 40.1448 26.7637 40.151 14.9643C40.1572 8.27792 44.5766 2.38434 51.0229 0.565256C52.306 0.202669 53.6882 0.0613234 55.027 0.0183014C56.9547 -0.0492987 58.3494 1.272 58.5105 3.10337C58.6841 5.05151 57.5498 6.59404 55.5849 6.83987C53.5146 7.09798 51.5374 7.43599 49.9196 8.91092C47.3535 11.2647 46.9754 14.2514 47.2605 17.6806ZM47.2357 49.8403C47.5332 49.9018 47.713 49.9632 47.8865 49.9632C53.3659 49.9694 58.8452 49.9509 64.3246 49.9878C65.3721 49.9939 65.4155 49.4593 65.4155 48.6788C65.4031 41.1075 65.3845 33.5423 65.4279 25.971C65.4341 24.9078 65.0808 24.6435 64.0518 24.6497C58.8514 24.6927 53.6572 24.6681 48.4568 24.6743C48.0601 24.6743 47.6572 24.7419 47.2295 24.7787C47.2357 33.192 47.2357 41.4516 47.2357 49.8403Z" fill="#FAB437"/>
</g>
<defs>
<clipPath id="clip0_0_865">
<rect width="72" height="57" fill="white" transform="translate(72.5001 57) rotate(-180)"/>
</clipPath>
</defs>
</svg>
